<svg version="1.1" xmlns="http://www.w3.org/2000/svg" viewBox="0 0 50.66842464790034 50.66842464790034" width="50.66842464790034" height="50.66842464790034">
  <!-- svg-source:excalidraw -->
  
  <defs>
    <style class="style-fonts">
      @font-face {
        font-family: "Virgil";
        src: url("https://excalidraw.com/Virgil.woff2");
      }
      @font-face {
        font-family: "Cascadia";
        src: url("https://excalidraw.com/Cascadia.woff2");
      }
      @font-face {
        font-family: "Assistant";
        src: url("https://excalidraw.com/Assistant-Regular.woff2");
      }
    </style>
    
  </defs>
  <rect x="0" y="0" width="50.66842464790034" height="50.66842464790034" fill="none"></rect><g stroke-linecap="round" transform="translate(10 10) rotate(0 15.334212323950169 15.334212323950169)"><path d="M-1.38 0.18 C9.68 -2.19, 21.22 1.49, 32.07 -0.7 M-0.57 -0.31 C6.91 0.29, 12.82 -0.33, 30.83 0.58 M29.47 0.06 C29.68 10.39, 28.93 23.07, 31.46 29.52 M30.31 0.78 C30.15 7.04, 31.51 13.85, 30.08 31.45 M31.62 28.75 C20.53 31.32, 12.65 29.45, -1.54 31.63 M30.82 30.67 C19.93 30.23, 9.49 30.7, -0.81 30.45 M1.62 29.31 C-0.44 18.38, -0.31 11.28, 1.31 -0.66 M-0.28 29.75 C1.07 23.62, -0.7 16.75, -0.72 -0.31" stroke="#087f5b" stroke-width="1" fill="none"></path></g><g stroke-linecap="round"><g transform="translate(15.245970159608078 23.431423339051435) rotate(0 4.000026514483579 0.6550298139059123)"><path d="M-0.25 0.03 C1.04 0.14, 6.51 0.71, 7.9 0.97 M0.27 -0.26 C1.5 0.03, 6.29 1.03, 7.58 1.25" stroke="#087f5b" stroke-width="1" fill="none"></path></g></g><mask></mask><g stroke-linecap="round"><g transform="translate(15.413532470318387 28.380449496655274) rotate(0 3.6759697223094463 -0.7572139618766869)"><path d="M0.03 -0.1 C1.14 -0.29, 5.74 -1.18, 7.01 -1.38 M-0.38 -0.45 C0.81 -0.73, 6.31 -1.7, 7.64 -1.93" stroke="#087f5b" stroke-width="1" fill="none"></path></g></g><mask></mask><g stroke-linecap="round"><g transform="translate(27.706655570467774 24.26782454650038) rotate(0 3.926286932438188 -0.5228669545440425)"><path d="M-0.1 -0.34 C1.28 -0.46, 6.62 -0.59, 7.99 -0.73 M0.5 0.26 C1.86 0.04, 6.53 -1.01, 7.78 -1.19" stroke="#087f5b" stroke-width="1" fill="none"></path></g></g><mask></mask><g stroke-linecap="round"><g transform="translate(28.11376976705651 26.390855521383855) rotate(0 3.8214746172355945 0.8774871938808246)"><path d="M-0.34 0.14 C0.98 0.49, 6.65 1.79, 7.96 2 M0.14 -0.1 C1.44 0.16, 6.66 1.22, 7.84 1.51" stroke="#087f5b" stroke-width="1" fill="none"></path></g></g><mask></mask><g stroke-linecap="round"><g transform="translate(26.683931444489644 27.14150257381607) rotate(0 2.4367448601291244 2.810246406157603)"><path d="M0.14 0.32 C1.01 1.29, 4.39 4.58, 5.12 5.5 M-0.22 0.17 C0.63 1.22, 4.06 5.04, 4.97 5.88" stroke="#087f5b" stroke-width="1" fill="none"></path></g></g><mask></mask><g stroke-linecap="round"><g transform="translate(25.59596041162149 28.411917487050232) rotate(0 -0.09004302135667785 3.0838650224136472)"><path d="M0.32 0.25 C0.32 1.2, -0.26 4.84, -0.3 5.85 M0.05 0.07 C0.03 1.04, -0.62 5.2, -0.65 6.13" stroke="#087f5b" stroke-width="1" fill="none"></path></g></g><mask></mask><g stroke-linecap="round"><g transform="translate(23.527992511129014 28.15626151332617) rotate(0 -2.733526557921209 2.55740791598123)"><path d="M0.25 -0.12 C-0.74 0.71, -4.85 4.49, -5.79 5.33 M-0.05 -0.49 C-0.95 0.39, -4.24 3.87, -5.16 4.81" stroke="#087f5b" stroke-width="1" fill="none"></path></g></g><mask></mask><g stroke-linecap="round"><g transform="translate(18.56137552648761 17.418994085194754) rotate(0 2.4367448601291244 2.810246406157603)"><path d="M-0.12 -0.32 C0.67 0.59, 4.29 4.76, 5.09 5.73 M0.46 0.28 C1.2 1.07, 4.27 4.24, 4.92 5.17" stroke="#087f5b" stroke-width="1" fill="none"></path></g></g><mask></mask><g stroke-linecap="round"><g transform="translate(26.6042182436222 22.933161312034827) rotate(0 3.1963480649436633 -2.4454152970015457)"><path d="M-0.32 0.21 C0.72 -0.62, 5.41 -4.27, 6.51 -5.09 M0.16 0.01 C1.15 -0.76, 5.31 -3.86, 6.29 -4.75" stroke="#087f5b" stroke-width="1" fill="none"></path></g></g><mask></mask><g stroke-linecap="round"><g transform="translate(24.932989492083834 16.762653564805987) rotate(0 -0.09004302135667785 3.0838650224136472)"><path d="M0.21 0.11 C0.17 1.18, -0.35 5.02, -0.38 6.06 M-0.11 -0.13 C-0.02 1.01, 0.31 5.48, 0.31 6.45" stroke="#087f5b" stroke-width="1" fill="none"></path></g></g><mask></mask></svg>