<svg version="1.1" xmlns="http://www.w3.org/2000/svg" viewBox="0 0 358.3341432912571 310.848054235836" width="358.3341432912571" height="310.848054235836">
  <!-- svg-source:excalidraw -->
  
  <defs>
    <style class="style-fonts">
      @font-face {
        font-family: "Virgil";
        src: url("https://excalidraw.com/Virgil.woff2");
      }
      @font-face {
        font-family: "Cascadia";
        src: url("https://excalidraw.com/Cascadia.woff2");
      }
      @font-face {
        font-family: "Assistant";
        src: url("https://excalidraw.com/Assistant-Regular.woff2");
      }
    </style>
    
  </defs>
  <rect x="0" y="0" width="358.3341432912571" height="310.848054235836" fill="#ffffff"></rect><g stroke-linecap="round"><g transform="translate(11.579741353252984 118.7786200043956) rotate(0 64.73454612774935 10.600694157851876)"><path d="M-0.08 0.95 C21.24 4.65, 106.71 18.02, 128.34 21.2 M-1.58 0.41 C20.05 4.39, 108.69 19.35, 130.46 22.74" stroke="#087f5b" stroke-width="1" fill="none"></path></g></g><mask></mask><g stroke-linecap="round"><g transform="translate(19.075931971497084 199.83648497263627) rotate(0 59.49016355052129 -12.254394306186214)"><path d="M0.95 -1.13 C20.95 -5.16, 99.5 -20.32, 118.98 -24.28 M-0.01 0.9 C19.92 -3.52, 98.01 -22.18, 118.03 -26.29" stroke="#087f5b" stroke-width="1" fill="none"></path></g></g><mask></mask><g stroke-linecap="round"><g transform="translate(217.09828268964498 133.27969876684617) rotate(0 63.54117944428572 -8.461832656620686)"><path d="M-1.13 0 C20.11 -3.17, 106 -15.33, 127.31 -18.07 M0.48 -1.04 C21.58 -4.19, 105.6 -14.22, 126.48 -17.14" stroke="#087f5b" stroke-width="1" fill="none"></path></g></g><mask></mask><g stroke-linecap="round"><g transform="translate(223.68682720125253 167.63783266336688) rotate(0 61.844946274662334 14.200839675215462)"><path d="M0 0.23 C20.27 5.09, 101.85 23.32, 122.54 28.03 M-1.46 -0.7 C19.08 4.43, 103.8 24.28, 124.65 29.37" stroke="#087f5b" stroke-width="1" fill="none"></path></g></g><mask></mask><g stroke-linecap="round"><g transform="translate(210.55572718031885 192.73282399260157) rotate(0 39.435131736858466 45.479704934717006)"><path d="M0.23 -1.15 C13.5 14.08, 65.38 76.16, 78.5 91.41 M-1.11 0.86 C12.07 15.73, 64.13 74.44, 77.36 89.53" stroke="#087f5b" stroke-width="1" fill="none"></path></g></g><mask></mask><g stroke-linecap="round"><g transform="translate(180.00287804974164 199.38059276513016) rotate(0 -1.4572138705561883 49.907819816281716)"><path d="M-1.15 -0.37 C-1.56 16.24, -2.07 83.17, -2.46 99.89 M0.45 -1.61 C-0.08 15.19, -2.34 84.31, -3.17 101.47" stroke="#087f5b" stroke-width="1" fill="none"></path></g></g><mask></mask><g stroke-linecap="round"><g transform="translate(150.39653345042075 195.24317683451764) rotate(0 -44.23810702615356 41.38788583153462)"><path d="M-0.37 0.45 C-15.14 14.34, -73.74 68.51, -88.4 82.18 M1.64 -0.36 C-13.31 13.79, -74.2 69.4, -89.31 83.41" stroke="#087f5b" stroke-width="1" fill="none"></path></g></g><mask></mask><g stroke-linecap="round"><g transform="translate(69.09537553025507 21.47629526621452) rotate(0 39.435131736858466 45.479704934717006)"><path d="M0.45 0.08 C13.69 15.32, 65.25 76.12, 78.28 91.08 M-0.77 -0.93 C12.97 14.56, 67.6 77.42, 80.68 92.69" stroke="#087f5b" stroke-width="1" fill="none"></path></g></g><mask></mask><g stroke-linecap="round"><g transform="translate(200.18072259477185 111.68013726302658) rotate(0 51.72819242603339 -39.575450005659405)"><path d="M0.08 -0.59 C17.4 -13.9, 86.53 -66.16, 103.58 -79.41 M-1.34 1.71 C15.87 -11.46, 85.02 -64.51, 102.7 -78.01" stroke="#087f5b" stroke-width="1" fill="none"></path></g></g><mask></mask><g stroke-linecap="round"><g transform="translate(169.27366877656527 10.854389251647518) rotate(0 -1.4572138705561883 49.907819816281716)"><path d="M-0.59 0.13 C-1.2 16.57, -2.63 82.32, -3.17 98.75 M1.3 -0.85 C0.47 15.7, -3.8 83.02, -4.26 99.73" stroke="#087f5b" stroke-width="1" fill="none"></path></g></g><mask></mask><g stroke-linecap="round"><g transform="translate(148.27702724455958 135.78949752430626) rotate(0 27.238216474200726 16.40459582482879)" fill-rule="evenodd"><path d="M-0.44 0.2 C9.23 -0.01, 45.4 -2.98, 57.31 -0.15 C69.22 2.68, 70.62 11.51, 71.04 17.17 C71.46 22.83, 72.75 31.61, 59.83 33.82 C46.9 36.03, 6.13 35.07, -6.51 30.45 C-19.15 25.82, -17.41 10.85, -16 6.07 C-14.6 1.28, -0.64 2.98, 1.93 1.74" stroke="none" stroke-width="0" fill="#12b886" fill-rule="evenodd"></path><path d="M0.64 -0.71 C10.46 -0.25, 47.62 -0.73, 59.24 2.29 C70.86 5.3, 70.14 12.57, 70.37 17.39 C70.61 22.2, 72.98 28.62, 60.67 31.18 C48.36 33.73, 9.29 36.96, -3.49 32.7 C-16.27 28.44, -16.46 10.99, -16.02 5.62 C-15.58 0.25, -3.55 1.26, -0.86 0.48 M-0.48 1.54 C9.23 1.73, 47.08 -2.02, 58.75 0.79 C70.42 3.59, 69.11 13.16, 69.56 18.36 C70.01 23.56, 73.79 29.55, 61.45 32 C49.1 34.44, 8.15 37.08, -4.52 33.04 C-17.2 29, -15.26 13.36, -14.62 7.75 C-13.98 2.15, -2.96 0.49, -0.66 -0.61" stroke="#000000" stroke-width="1" fill="none"></path></g></g><mask></mask><g transform="translate(135.97266862330412 142.77246135982872) rotate(0 39.05946417564496 10.043161661233029)"><text x="0" y="16.177476506139588" font-family="Cascadia, Segoe UI Emoji" font-size="16.677746416326187px" fill="#fff" text-anchor="start" style="white-space: pre;" direction="ltr" dominant-baseline="alphabetic">Homa.png</text></g></svg>